<?xml version="1.0" encoding="UTF-8"?>
<svg width="1345px" height="1386px" viewBox="0 0 1345 1386" version="1.1" xmlns="http://www.w3.org/2000/svg" xmlns:xlink="http://www.w3.org/1999/xlink">
    <!-- Generator: Sketch 52.6 (67491) - http://www.bohemiancoding.com/sketch -->
    <title>icon</title>
    <desc>Created with Sketch.</desc>
    <g id="Page-1" stroke="none" stroke-width="1" fill="none" fill-rule="evenodd">
        <g id="icon" transform="translate(0.000000, 40.000000)" fill="#D8D8D8">
            <path d="M1345,448 L1345,1155.03607 C1345,1259.97017 1259.9341,1345.03607 1155,1345.03607 L190,1345.03607 C85.0658975,1345.03607 6.42536064e-15,1259.97017 0,1155.03607 L2.08240143e-14,448 L170,448 L170,1115.03607 C170,1152.03915 199.996922,1182.03607 237,1182.03607 L1109,1182.03607 C1146.00308,1182.03607 1176,1152.03915 1176,1115.03607 L1176,448 L1345,448 Z" id="Combined-Shape"></path>
            <ellipse id="Oval" cx="84.5" cy="454" rx="84.5" ry="86"></ellipse>
            <ellipse id="Oval-Copy" cx="1260.5" cy="454" rx="84.5" ry="86"></ellipse>
            <polygon id="Triangle" stroke="#D8D8D8" stroke-width="80" stroke-linejoin="round" transform="translate(673.000000, 128.500000) scale(1, -1) translate(-673.000000, -128.500000) " points="673 0 801.5 257 544.5 257"></polygon>
            <path d="M1079.5,975.5 C1079.5,930.208063 1044.30143,893.5 1000.89252,893.5 L344.107481,893.5 C300.698574,893.5 265.5,930.208063 265.5,975.5 C265.5,1020.79194 300.698574,1057.5 344.107481,1057.5 L1000.89252,1057.5 C1044.30143,1057.5 1079.5,1020.79194 1079.5,975.5 Z" id="Rectangle-Copy-6" stroke="#979797" stroke-width="1"></path>
            <path d="M1079.5,713.5 C1079.5,668.208063 1044.30143,631.5 1000.89252,631.5 L344.107481,631.5 C300.698574,631.5 265.5,668.208063 265.5,713.5 C265.5,758.791937 300.698574,795.5 344.107481,795.5 L1000.89252,795.5 C1044.30143,795.5 1079.5,758.791937 1079.5,713.5 Z" id="Rectangle-Copy-6" stroke="#979797" stroke-width="1"></path>
            <path d="M1079.5,452.5 C1079.5,407.208063 1044.30143,370.5 1000.89252,370.5 L344.107481,370.5 C300.698574,370.5 265.5,407.208063 265.5,452.5 C265.5,497.791937 300.698574,534.5 344.107481,534.5 L1000.89252,534.5 C1044.30143,534.5 1079.5,497.791937 1079.5,452.5 Z" id="Rectangle-Copy-6" stroke="#979797" stroke-width="1"></path>
        </g>
    </g>
</svg>