<?xml version="1.0" encoding="UTF-8" standalone="no"?>
<!-- Created with Inkscape (http://www.inkscape.org/) -->

<svg
   width="210mm"
   height="297mm"
   viewBox="0 0 210 297"
   version="1.1"
   id="svg1"
   xml:space="preserve"
   inkscape:version="1.4.3 (0d15f75, 2025-12-25)"
   sodipodi:docname="bucket.svg"
   xmlns:inkscape="http://www.inkscape.org/namespaces/inkscape"
   xmlns:sodipodi="http://sodipodi.sourceforge.net/DTD/sodipodi-0.dtd"
   xmlns="http://www.w3.org/2000/svg"
   xmlns:svg="http://www.w3.org/2000/svg"><sodipodi:namedview
     id="namedview1"
     pagecolor="#ffffff"
     bordercolor="#000000"
     borderopacity="0.25"
     inkscape:showpageshadow="2"
     inkscape:pageopacity="0.0"
     inkscape:pagecheckerboard="0"
     inkscape:deskcolor="#d1d1d1"
     inkscape:document-units="mm"
     inkscape:zoom="0.27092994"
     inkscape:cx="81.201806"
     inkscape:cy="398.62705"
     inkscape:window-width="1680"
     inkscape:window-height="991"
     inkscape:window-x="0"
     inkscape:window-y="31"
     inkscape:window-maximized="1"
     inkscape:current-layer="layer1" /><defs
     id="defs1" /><g
     inkscape:label="Ebene 1"
     inkscape:groupmode="layer"
     id="layer1"><path
       style="fill:#000000"
       d="m 80.532619,119.77829 c -1.997262,-0.48353 -3.91028,-2.07388 -4.564498,-3.79461 -0.14108,-0.37106 -0.867319,-4.94076 -1.613865,-10.15487 -0.746546,-5.21411 -1.699833,-11.679418 -2.118415,-14.367358 -0.802392,-5.15258 -0.791263,-5.28642 0.440281,-5.29524 0.846001,-0.006 4.965381,-1.24611 7.122101,-2.14396 9.069018,-3.77544 19.441996,-13.8339 24.600377,-23.85446 0.93697,-1.82015 1.12755,-2.03147 1.96937,-2.18377 3.9439,-0.71351 6.97347,-4.14664 7.00446,-7.93749 0.007,-0.87312 -0.0858,-1.97445 -0.20649,-2.44739 l -0.21946,-0.8599 h 16.69482 16.69481 l -0.12892,0.59531 c -0.0709,0.32742 -0.2602,1.54782 -0.42065,2.71198 -0.54483,3.95315 -4.2173,28.09154 -8.18154,53.775618 -1.01626,6.58431 -2.01946,12.29931 -2.22933,12.7 -0.49199,0.93934 -1.89518,2.25538 -3.07256,2.88174 -0.88266,0.46956 -2.09733,0.49462 -25.92916,0.53498 -13.75172,0.0233 -25.380318,-0.049 -25.841331,-0.16058 z M 65.962695,83.920112 c -3.261058,-0.92042 -6.066939,-3.22407 -7.355705,-6.03911 -2.778306,-6.06862 -0.173897,-15.84088 6.355981,-23.8489 l 1.280764,-1.57069 -0.386039,-2.86108 -0.386039,-2.86109 H 81.538708 97.60576 l -0.246114,0.85815 c -0.326708,1.13916 -0.309823,3.26743 0.0358,4.51204 0.256314,0.923 0.199225,1.14853 -0.703238,2.77812 -5.058073,9.13341 -11.738692,15.98171 -19.290131,19.7743 -2.445481,1.2282 -7.120225,2.7853 -7.392213,2.46226 -0.04171,-0.0495 -0.640722,-4.07867 -1.331133,-8.95362 -0.690411,-4.87495 -1.295212,-8.90631 -1.344003,-8.95859 -0.168302,-0.18031 -2.057706,2.98456 -3.0499,5.10878 -1.345618,2.88089 -1.8322,4.93574 -1.829123,7.72446 0.0021,1.89981 0.120074,2.59537 0.623649,3.67679 0.675789,1.45124 1.890151,2.62682 3.342516,3.23576 1.399583,0.58682 5.689464,0.30188 8.069791,-0.536 9.495945,-3.34257 18.321264,-11.58866 24.084671,-22.50395 l 1.510138,-2.86004 -0.45187,-1.43661 c -0.685042,-2.17792 -0.08207,-4.65867 1.48808,-6.1222 2.79622,-2.60635 7.19093,-2.00651 9.17156,1.25184 0.80927,1.33135 0.87072,1.58788 0.78947,3.2958 -0.0749,1.57364 -0.21595,2.0371 -0.93843,3.08269 -1.01841,1.47386 -2.7152,2.38568 -4.63157,2.48892 l -1.32992,0.0716 -1.49419,2.86692 c -7.385516,14.17066 -21.41542,25.12919 -32.828147,25.64153 -1.725546,0.0775 -2.947806,-0.01 -3.898755,-0.27812 z m 40.741985,-32.99984 c 0.59826,-0.6919 0.58876,-1.58587 -0.0249,-2.34373 -0.66339,-0.81925 -2.06492,-0.81925 -2.7283,0 -1.57437,1.94426 1.11734,4.23563 2.75321,2.34373 z m -43.954834,-7.01469 c -2.630306,-1.29578 -2.470203,-5.67625 0.241599,-6.61026 0.694717,-0.23928 11.142332,-0.31931 43.117915,-0.33032 47.77639,-0.0164 43.49093,-0.2221 44.66493,2.14345 0.70481,1.42014 0.60913,2.68661 -0.28923,3.8287 -1.13593,1.4441 -0.79901,1.42084 -20.58592,1.42084 h -18.29596 l -0.94753,-0.83194 c -1.21198,-1.06413 -2.73025,-1.7313 -4.46108,-1.96032 -1.86878,-0.24727 -4.60398,0.58661 -6.08651,1.8556 l -1.094272,0.93666 -17.685023,-0.006 c -15.954132,-0.005 -17.772512,-0.0491 -18.578919,-0.44639 z"
       id="path1" /></g></svg>
